<svg width="48" height="48" viewBox="0 0 48 48" fill="none" xmlns="http://www.w3.org/2000/svg" role="img" aria-labelledby="logicformMarkTitle logicformMarkDesc">
  <title id="logicformMarkTitle">Logicform Systems mark</title>
  <desc id="logicformMarkDesc">A premium Logicform Systems monogram showing structured forms, connected systems, and forward movement.</desc>
  <defs>
    <linearGradient id="markBorder" x1="6" y1="3" x2="43" y2="45" gradientUnits="userSpaceOnUse">
      <stop stop-color="#FFF0A8"/>
      <stop offset="0.42" stop-color="#D7B64A"/>
      <stop offset="1" stop-color="#8F6F16"/>
    </linearGradient>
    <linearGradient id="markGold" x1="12" y1="10" x2="34" y2="39" gradientUnits="userSpaceOnUse">
      <stop stop-color="#FFF6C9"/>
      <stop offset="0.55" stop-color="#D8B852"/>
      <stop offset="1" stop-color="#A78322"/>
    </linearGradient>
    <linearGradient id="markGlass" x1="9" y1="6" x2="40" y2="44" gradientUnits="userSpaceOnUse">
      <stop stop-color="#12110D"/>
      <stop offset="1" stop-color="#050504"/>
    </linearGradient>
    <filter id="markGlow" x="-24%" y="-24%" width="148%" height="148%" color-interpolation-filters="sRGB">
      <feDropShadow dx="0" dy="0" stdDeviation="2.8" flood-color="#D7B64A" flood-opacity="0.28"/>
      <feDropShadow dx="0" dy="12" stdDeviation="12" flood-color="#000000" flood-opacity="0.38"/>
    </filter>
  </defs>

  <g filter="url(#markGlow)">
    <rect x="2.5" y="2.5" width="43" height="43" rx="13.5" fill="url(#markGlass)" stroke="url(#markBorder)" stroke-width="1.4"/>
    <path d="M12.4 12.3H16.8V31.4H28.8V35.7H12.4V12.3Z" fill="url(#markGold)"/>
    <path d="M21.2 12.3H35.9V16.5H25.8V22.3H34.1V26.4H25.8V35.7H21.2V12.3Z" fill="#FBF7EC"/>
    <path d="M10.6 23.7H37.4" stroke="#D7B64A" stroke-opacity="0.38" stroke-width="1.1" stroke-linecap="round"/>
    <path d="M31.5 32.1H36.1" stroke="#D7B64A" stroke-width="1.35" stroke-linecap="round"/>
    <circle cx="36.6" cy="34.9" r="2.35" fill="#F2D36B"/>
    <circle cx="36.6" cy="34.9" r="4.8" stroke="#D7B64A" stroke-opacity="0.16"/>
    <circle cx="12.4" cy="12.3" r="1.15" fill="#F2D36B"/>
    <circle cx="35.9" cy="12.3" r="1.15" fill="#F2D36B" fill-opacity="0.55"/>
  </g>
</svg>
