<svg width="248" height="42" viewBox="0 0 248 42" fill="none" xmlns="http://www.w3.org/2000/svg" role="img" aria-labelledby="logicformLogoTitle logicformLogoDesc">
  <title id="logicformLogoTitle">Logicform Systems logo</title>
  <desc id="logicformLogoDesc">A premium black and gold Logicform Systems wordmark with a structured LF monogram.</desc>
  <defs>
    <linearGradient id="gold" x1="7" y1="4" x2="36" y2="40" gradientUnits="userSpaceOnUse">
      <stop stop-color="#F5D76E"/>
      <stop offset="0.42" stop-color="#D4AF37"/>
      <stop offset="1" stop-color="#9E7C18"/>
    </linearGradient>
    <linearGradient id="goldSoft" x1="13" y1="10" x2="30" y2="33" gradientUnits="userSpaceOnUse">
      <stop stop-color="#FFF2B8"/>
      <stop offset="1" stop-color="#D4AF37"/>
    </linearGradient>
    <filter id="softGlow" x="-20%" y="-20%" width="140%" height="140%" color-interpolation-filters="sRGB">
      <feDropShadow dx="0" dy="0" stdDeviation="2.2" flood-color="#D4AF37" flood-opacity="0.28"/>
    </filter>
  </defs>

  <g filter="url(#softGlow)">
    <rect x="1" y="1" width="40" height="40" rx="12" fill="#070707" stroke="url(#gold)" stroke-width="1.35"/>
    <path d="M12.5 11.25V30.75H25.25V26.9H17.05V11.25H12.5Z" fill="url(#goldSoft)"/>
    <path d="M20.2 11.25H31.1V15.1H24.75V19.15H30.05V22.85H24.75V30.75H20.2V11.25Z" fill="#F8F5EC" fill-opacity="0.94"/>
    <path d="M10.25 21H31.75" stroke="#D4AF37" stroke-opacity="0.42" stroke-width="1" stroke-linecap="round"/>
    <circle cx="32" cy="30.2" r="2.15" fill="#F5D76E"/>
  </g>

  <text x="54" y="27" fill="#F8F5EC" font-family="Inter, ui-sans-serif, system-ui, -apple-system, BlinkMacSystemFont, 'Segoe UI', sans-serif" font-size="18" font-weight="720" letter-spacing="-0.045em">Logicform</text>
  <text x="151" y="27" fill="#C8BFAE" font-family="Inter, ui-sans-serif, system-ui, -apple-system, BlinkMacSystemFont, 'Segoe UI', sans-serif" font-size="18" font-weight="520" letter-spacing="-0.035em">Systems</text>
  <path d="M54 33.5H194" stroke="#D4AF37" stroke-opacity="0.26" stroke-linecap="round"/>
  <circle cx="202" cy="33.5" r="1.8" fill="#D4AF37" fill-opacity="0.72"/>
  <circle cx="211" cy="33.5" r="1.8" fill="#D4AF37" fill-opacity="0.42"/>
  <circle cx="220" cy="33.5" r="1.8" fill="#D4AF37" fill-opacity="0.22"/>
</svg>
