<svg width="1200" height="630" viewBox="0 0 1200 630" fill="none" xmlns="http://www.w3.org/2000/svg">
  <rect width="1200" height="630" fill="#030303"/>
  <rect x="56" y="56" width="1088" height="518" rx="28" fill="#070604" stroke="rgba(212,175,55,0.32)"/>
  <defs>
    <linearGradient id="ogGold" x1="104" y1="126" x2="160" y2="186" gradientUnits="userSpaceOnUse">
      <stop stop-color="#fff6c9"/>
      <stop offset="0.48" stop-color="#d9b85a"/>
      <stop offset="1" stop-color="#9b781e"/>
    </linearGradient>
  </defs>
  <rect x="96" y="120" width="72" height="72" rx="18" fill="#090807" stroke="#d4af37" stroke-opacity="0.82" stroke-width="2"/>
  <path d="M117 136H128V166H149V176H117V136Z" fill="url(#ogGold)"/>
  <path d="M132 136H155V146H143V152H153V162H143V176H132V136Z" fill="url(#ogGold)"/>
  <path d="M117 136H128V146H117V136Z" fill="#fff3b2" fill-opacity="0.9"/>
  <path d="M132 136H155V146H132V136Z" fill="#fff3b2" fill-opacity="0.78"/>
  <text x="188" y="162" fill="#fffaf0" font-family="system-ui, sans-serif" font-size="34" font-weight="650">LogicForm Systems</text>
  <text x="96" y="248" fill="#fffaf0" font-family="system-ui, sans-serif" font-size="46" font-weight="600">Premium digital systems for</text>
  <text x="96" y="308" fill="#fffaf0" font-family="system-ui, sans-serif" font-size="46" font-weight="600">modern business operations</text>
  <text x="96" y="382" fill="#e8ddc6" font-family="system-ui, sans-serif" font-size="28">Websites · Apps · Dashboards · Automation · Partnership</text>
  <text x="96" y="440" fill="#d4af37" font-family="system-ui, sans-serif" font-size="24" font-weight="600">Remote-first systems for cross-market operations</text>
</svg>
